# xmcd
#
# Track frame offsets:
# 150
# 13864
# 41727
# 61817
# 82342
# 102080
# 117787
# 131392
# 153129
#
# Disc length: 2291 seconds
#
#
# Revision: 0
# Processed by: cddbd v1.5.1PL2 Copyright (c) Steve Scherf et al.
# Submitted via: FreeRIP 2.943 
#
DISCID=6b08f109
DTITLE=7th streetmenband - Only this trash survives on the 7th street
DYEAR=1900
DGENRE=
TTITLE0=Love Slipped In
TTITLE1=A Quitter Never Wins
TTITLE2=Blind Love
TTITLE3=Miss You
TTITLE4=Mr. Pitful
TTITLE5=Brand new Cadillac
TTITLE6=Tore Down
TTITLE7=Glimer, Texas
TTITLE8=Always In My Heart
EXTD=
EXTT0=
EXTT1=
EXTT2=
EXTT3=
EXTT4=
EXTT5=
EXTT6=
EXTT7=
EXTT8=
PLAYORDER=
